<svg width="16" height="16" viewBox="0 0 16 16" fill="none" xmlns="http://www.w3.org/2000/svg">
<path fill-rule="evenodd" clip-rule="evenodd" d="M6.00006 2C3.79092 2 2.00006 3.79086 2.00006 6C2.00006 8.20914 3.79092 10 6.00006 10C8.2092 10 10.0001 8.20914 10.0001 6C10.0001 3.79086 8.2092 2 6.00006 2ZM6.10352e-05 6C6.10352e-05 2.68629 2.68635 0 6.00006 0C9.31377 0 12.0001 2.68629 12.0001 6C12.0001 7.29583 11.5893 8.49572 10.8908 9.47653L15.7072 14.2929C16.0977 14.6834 16.0977 15.3166 15.7072 15.7071C15.3166 16.0976 14.6835 16.0976 14.293 15.7071L9.4766 10.8907C8.49578 11.5892 7.29589 12 6.00006 12C2.68635 12 6.10352e-05 9.31371 6.10352e-05 6Z" fill="#fff"/>
</svg>
